Unique ID : 211709425711061246045417810980584073970 (0x9F45C0935D2D591E9168AB25D84CAAF2)
Complete name : F:VideosHousefull 2010 720p BluRay nHD x264 NhaNc3-I Dont Know What To Do.mkv
Format : Matroska
Format version : Version 2
File size : 55.6 MiB
Duration : 3mn 16s
Overall bit rate : 2 378 Kbps
Encoded date : UTC 2011-02-03 11:49:21
Writing application : mkvmerge v4.4.0 ('Die Wiederkehr') built on Oct 31 2010 21:52:48
Writing library : libebml v1.0.0 + libmatroska v1.0.0
Video
ID : 1
Format : AVC
Format/Info : Advanced Video Codec
Format profile : High@L4.1
Format settings, CABAC : Yes
Format settings, ReFrames : 7 frames
Muxing mode : Header stripping
Codec ID : V_MPEG4/ISO/AVC
Duration : 3mn 16s
Bit rate : 2 010 Kbps
Width : 1 280 pixels
Height : 544 pixels
Display aspect ratio : 2.35:1
Frame rate mode : Constant
Frame rate : 23.976 fps
Color space : YUV
Chroma subsampling : 4:2:0
Bit depth : 8 bits
Scan type : Progressive
Bits/(Pixel*Frame) : 0.120
Stream size : 47.0 MiB (85%)
Language : English
Default : Yes
Forced : No
Audio
ID : 2
Format : AC-3
Format/Info : Audio Coding 3
Mode extension : CM (complete main)
Format settings, Endianness : Big
Muxing mode : Header stripping
Codec ID : A_AC3
Duration : 3mn 16s
Bit rate mode : Constant
Bit rate : 320 Kbps
Channel(s) : 6 channels
Channel positions : Front: L C R, Side: L R, LFE
Sampling rate : 48.0 KHz
Bit depth : 16 bits
Compression mode : Lossy
Stream size : 7.49 MiB (13%)
Language : Hindi
Default : Yes
Forced : No
Text
ID : 3
Format : ASS
Codec ID : S_TEXT/ASS
Codec ID/Info : Advanced Sub Station Alpha
Compression mode : Lossless
Language : English
Default : Yes
Forced : No